<?xml version="1.0" encoding="iso-8859-1"?>
<!-- Generator: Adobe Illustrator 19.0.0, SVG Export Plug-In . SVG Version: 6.00 Build 0)  -->
<svg version="1.1" id="Layer_1" xmlns="http://www.w3.org/2000/svg" xmlns:xlink="http://www.w3.org/1999/xlink" x="0px" y="0px"
	 viewBox="0 0 511.999 511.999" style="enable-background:new 0 0 511.999 511.999;" xml:space="preserve">
<path style="fill:#2D527C;" d="M464.255,477.405H47.744C21.418,477.405,0,455.989,0,429.662V82.336
	C0,56.01,21.418,34.593,47.744,34.593h416.511c26.326,0,47.744,21.418,47.744,47.744c0,7.641-6.195,13.838-13.838,13.838
	s-13.838-6.196-13.838-13.838c0-11.066-9.003-20.069-20.069-20.069H47.744c-11.066,0-20.069,9.001-20.069,20.067v347.326
	c0,11.066,9.003,20.069,20.069,20.069h416.511c11.066,0,20.069-9.003,20.069-20.069V244.01c0-7.641,6.195-13.838,13.838-13.838
	s13.838,6.196,13.838,13.838v185.652C512,455.989,490.582,477.405,464.255,477.405z"/>
<path style="fill:#CEE8FA;" d="M13.838,82.336v69.883h484.323V82.336c0-18.726-15.18-33.906-33.906-33.906H47.744
	C29.019,48.429,13.838,63.611,13.838,82.336z"/>
<g>
	<path style="fill:#2D527C;" d="M498.162,166.056H13.838C6.195,166.056,0,159.859,0,152.218V82.336
		C0,56.01,21.418,34.593,47.744,34.593h416.511c26.326,0,47.744,21.418,47.744,47.744v69.883
		C512,159.861,505.805,166.056,498.162,166.056z M27.675,138.381h456.65V82.336c0-11.066-9.003-20.069-20.069-20.069H47.745
		c-11.067,0.001-20.07,9.003-20.07,20.069V138.381z"/>
	<path style="fill:#2D527C;" d="M294.742,114.161H268.45c-7.642,0-13.838-6.196-13.838-13.838s6.195-13.838,13.838-13.838h26.291
		c7.642,0,13.838,6.196,13.838,13.838S302.384,114.161,294.742,114.161z"/>
	<path style="fill:#2D527C;" d="M368.081,114.161H341.79c-7.642,0-13.838-6.196-13.838-13.838s6.195-13.838,13.838-13.838h26.291
		c7.643,0,13.838,6.196,13.838,13.838S375.723,114.161,368.081,114.161z"/>
	<path style="fill:#2D527C;" d="M441.42,114.161h-26.291c-7.642,0-13.838-6.196-13.838-13.838s6.195-13.838,13.838-13.838h26.291
		c7.642,0,13.838,6.196,13.838,13.838S449.063,114.161,441.42,114.161z"/>
</g>
<polygon style="fill:#CEE8FA;" points="255.999,363.092 199.146,392.982 210.005,329.674 164.008,284.84 227.573,275.604 
	255.999,218.005 284.427,275.604 347.992,284.84 301.995,329.674 312.854,392.982 "/>
<path style="fill:#2D527C;" d="M312.852,406.82c-2.203,0-4.413-0.524-6.437-1.589l-50.414-26.504l-50.414,26.504
	c-4.66,2.449-10.312,2.042-14.572-1.054c-4.261-3.097-6.396-8.341-5.505-13.533l9.628-56.136l-40.786-39.757
	c-3.772-3.677-5.13-9.176-3.501-14.185c1.629-5.009,5.958-8.661,11.171-9.419l56.365-8.189l25.207-51.076
	c2.332-4.723,7.142-7.713,12.408-7.713c5.267,0,10.078,2.99,12.408,7.713l25.207,51.076l56.365,8.189
	c5.213,0.758,9.542,4.41,11.171,9.419s0.27,10.508-3.501,14.185l-40.786,39.757l9.475,55.237c0.249,1.039,0.381,2.124,0.381,3.239
	c0,7.64-6.191,13.833-13.831,13.838C312.876,406.82,312.865,406.82,312.852,406.82z M255.999,349.254
	c2.213,0,4.424,0.53,6.439,1.589l32.037,16.843l-6.118-35.672c-0.771-4.489,0.718-9.069,3.978-12.249l25.918-25.265l-35.819-5.204
	c-4.507-0.656-8.404-3.487-10.418-7.571l-16.018-32.456l-16.018,32.456c-2.016,4.083-5.911,6.915-10.418,7.571l-35.819,5.204
	l25.918,25.265c3.26,3.18,4.749,7.759,3.978,12.249l-6.118,35.672l32.037-16.843C251.577,349.784,253.788,349.254,255.999,349.254z"
	/>
<g>
</g>
<g>
</g>
<g>
</g>
<g>
</g>
<g>
</g>
<g>
</g>
<g>
</g>
<g>
</g>
<g>
</g>
<g>
</g>
<g>
</g>
<g>
</g>
<g>
</g>
<g>
</g>
<g>
</g>
</svg>
