<?xml version="1.0" standalone="no"?><!DOCTYPE svg PUBLIC "-//W3C//DTD SVG 1.1//EN" "http://www.w3.org/Graphics/SVG/1.1/DTD/svg11.dtd"><svg t="1630825199532" class="icon" viewBox="0 0 1024 1024" version="1.1" xmlns="http://www.w3.org/2000/svg" p-id="3777" xmlns:xlink="http://www.w3.org/1999/xlink" width="200" height="200"><defs><style type="text/css"></style></defs><path d="M753.257143 416L539.314286 273.6v127.2l118.4 78.971429zM512 448.114286l-96.571429 64.457143 96.571429 64.457142 96.571429-64.457142z m27.314286 176.228571v127.2L753.257143 609.142857l-95.542857-63.771428z m-173.028572-78.971428L270.742857 609.142857l213.942857 142.4V624.342857l-118.4-78.971428zM932.571429 54.857143H91.428571c-20.228571 0-36.571429 16.342857-36.571428 36.571428v841.142858c0 20.228571 16.342857 36.571429 36.571428 36.571428h841.142858c20.228571 0 36.571429-16.342857 36.571428-36.571428V91.428571c0-20.228571-16.342857-36.571429-36.571428-36.571428z m-102.857143 554.285714c0 1.257143-0.114286 2.4-0.228572 3.542857 0 0.457143-0.114286 0.8-0.228571 1.142857a16.182857 16.182857 0 0 1-0.914286 3.657143c-0.228571 0.685714-0.457143 1.371429-0.685714 1.942857-0.228571 0.457143-0.457143 0.914286-0.571429 1.371429-0.342857 0.571429-0.571429 1.257143-0.914285 1.828571-0.228571 0.457143-0.457143 0.8-0.8 1.257143-0.342857 0.571429-0.8 1.142857-1.142858 1.714286-0.342857 0.457143-0.571429 0.8-0.914285 1.142857-0.457143 0.457143-0.914286 1.028571-1.371429 1.485714-0.342857 0.342857-0.685714 0.685714-1.142857 1.028572-0.457143 0.457143-1.028571 0.914286-1.6 1.257143-0.457143 0.342857-0.8 0.685714-1.257143 0.914285-0.114286 0.114286-0.342857 0.228571-0.457143 0.342858L527.085714 825.142857c-4.571429 3.085714-9.828571 4.571429-15.085714 4.571429-5.371429 0-10.628571-1.6-15.2-4.571429L206.4 631.885714c-0.114286-0.114286-0.342857-0.228571-0.457143-0.342857l-1.257143-0.914286c-0.571429-0.457143-1.028571-0.8-1.485714-1.257142-0.342857-0.342857-0.685714-0.685714-1.142857-1.028572-0.457143-0.457143-0.914286-0.914286-1.371429-1.485714a8 8 0 0 1-0.914285-1.142857c-0.457143-0.571429-0.8-1.142857-1.142858-1.714286-0.228571-0.457143-0.571429-0.8-0.8-1.257143-0.342857-0.571429-0.685714-1.257143-0.914285-1.828571-0.228571-0.457143-0.457143-0.914286-0.571429-1.371429-0.228571-0.685714-0.457143-1.371429-0.685714-1.942857-0.114286-0.457143-0.342857-0.914286-0.457143-1.371429-0.228571-0.8-0.342857-1.485714-0.457143-2.285714-0.114286-0.342857-0.114286-0.8-0.228571-1.142857-0.114286-1.142857-0.228571-2.4-0.228572-3.542857V415.885714c0-1.142857 0.114286-2.4 0.228572-3.542857 0.114286-0.342857 0.114286-0.8 0.228571-1.142857a16.182857 16.182857 0 0 1 0.914286-3.657143c0.228571-0.685714 0.457143-1.371429 0.685714-1.942857 0.228571-0.457143 0.457143-0.914286 0.571429-1.371429 0.228571-0.571429 0.571429-1.257143 0.914285-1.828571 0.228571-0.457143 0.457143-0.8 0.8-1.257143 0.685714-1.028571 1.371429-1.942857 2.057143-2.857143 0.457143-0.457143 0.914286-1.028571 1.371429-1.485714 0.342857-0.342857 0.685714-0.685714 1.142857-1.028571 0.457143-0.457143 1.028571-0.914286 1.485714-1.257143 0.457143-0.342857 0.8-0.685714 1.257143-0.914286 0.114286-0.114286 0.342857-0.228571 0.457143-0.342857L496.8 200c9.142857-6.057143 21.142857-6.057143 30.285714 0l290.4 193.257143c0.114286 0.114286 0.342857 0.228571 0.457143 0.342857l1.257143 0.914286 1.6 1.257143c0.342857 0.342857 0.685714 0.685714 1.142857 1.028571 0.457143 0.457143 0.914286 0.914286 1.371429 1.485714 0.8 0.914286 1.485714 1.828571 2.057143 2.857143 0.228571 0.457143 0.571429 0.8 0.8 1.257143 0.342857 0.571429 0.685714 1.142857 0.914285 1.828571 0.228571 0.457143 0.457143 0.914286 0.571429 1.371429 0.228571 0.685714 0.457143 1.371429 0.685714 1.942857 0.114286 0.457143 0.342857 0.914286 0.457143 1.371429 0.228571 0.8 0.342857 1.485714 0.457143 2.285714 0.114286 0.342857 0.114286 0.8 0.228571 1.142857 0.114286 1.142857 0.228571 2.4 0.228572 3.542857V609.142857z m-54.628572-50.971428v-91.2l-68.342857 45.6z m-526.171428-91.2v91.2l68.342857-45.6z m235.771428-66.171429V273.6L270.742857 416l95.542857 63.771429z" p-id="3778" fill="#2c2c2c"></path></svg>