<!-- Generated by IcoMoon.io -->
<svg version="1.1" xmlns="http://www.w3.org/2000/svg" width="512" height="512" viewBox="0 0 512 512">
<title></title>
<g id="icomoon-ignore">
</g>
<path d="M129.772 255.999c0-32.708 26.515-59.223 59.223-59.223s59.223 26.515 59.223 59.223c0 32.708-26.515 59.223-59.223 59.223s-59.223-26.515-59.223-59.223zM256.002 0c-141.387 0-256.002 114.616-256.002 256s114.613 256 256.002 256c141.382 0 255.998-114.615 255.998-256 0-141.384-114.615-256-255.998-256zM189.698 479.641c-76.978-44.787-128.734-128.162-128.734-223.641s51.756-178.854 128.731-223.641c77.005 44.781 128.795 128.144 128.795 223.641 0 95.494-51.79 178.859-128.792 223.641z"></path>
</svg>
