<?xml version="1.0" encoding="iso-8859-1"?>
<!-- Generator: Adobe Illustrator 19.0.0, SVG Export Plug-In . SVG Version: 6.00 Build 0)  -->
<svg version="1.1" id="Layer_1" xmlns="http://www.w3.org/2000/svg" xmlns:xlink="http://www.w3.org/1999/xlink" x="0px" y="0px"
	 viewBox="0 0 512 512" style="enable-background:new 0 0 512 512;" xml:space="preserve">
<circle style="fill:#504B5A;" cx="76.426" cy="136.284" r="68.409"/>
<circle style="fill:#625D6B;" cx="76.426" cy="136.284" r="34.205"/>
<circle style="fill:#504B5A;" cx="435.574" cy="136.284" r="68.409"/>
<circle style="fill:#625D6B;" cx="435.574" cy="136.284" r="34.205"/>
<ellipse style="fill:#EDEDEE;" cx="256" cy="264.551" rx="230.881" ry="179.574"/>
<path style="fill:#DCDBDE;" d="M324.409,427.023c-13.073,0-25.826-1.289-38.14-3.724c-4.389-0.868-4.437-7.022-0.065-7.974
	c37.132-8.086,63.859-31.404,63.859-65.262c0-34.205-45.977-85.512-94.063-85.512c-39.188,0-76.877,34.051-89.498,65.17
	c-1.596,3.936-7.146,4.04-9.174,0.309c-13.441-24.724-21.043-52.803-21.043-82.582c0-71.58,43.883-133.361,107.362-162.21
	c-121.767,4.994-218.527,83.36-218.527,179.312c0,99.176,103.369,179.574,230.881,179.574c39.619,0,76.898-7.772,109.479-21.446
	C352.254,425.491,338.523,427.023,324.409,427.023z"/>
<g>
	<path style="fill:#504B5A;" d="M187.591,238.898c0,25.653-17.102,94.063-59.858,94.063c-25.653,0-51.307-25.653-42.756-59.858
		s42.756-68.409,68.409-68.409C172.277,204.693,187.591,220.007,187.591,238.898z"/>
	<path style="fill:#504B5A;" d="M324.409,238.898c0,25.653,17.102,94.063,59.858,94.063c25.653,0,51.307-25.653,42.756-59.858
		s-42.756-68.409-68.409-68.409C339.723,204.693,324.409,220.007,324.409,238.898z"/>
	<path style="fill:#504B5A;" d="M281.46,320.231l-13.988,6.994c-7.223,3.611-15.723,3.611-22.945,0l-13.988-6.994
		c-5.359-2.68-8.745-8.158-8.745-14.15v-0.057c0-8.737,7.083-15.82,15.82-15.82h36.77c8.737,0,15.82,7.083,15.82,15.82v0.057
		C290.205,312.073,286.819,317.551,281.46,320.231z"/>
</g>
<path d="M512,136.284c0-42.141-34.285-76.426-76.426-76.426c-27.847,0-53.345,15.191-66.752,39.217
	C334.531,84.633,296.007,76.96,256,76.96s-78.531,7.673-112.822,22.114c-13.407-24.026-38.906-39.217-66.752-39.217
	C34.285,59.858,0,94.143,0,136.284c0,24.811,12.169,48.029,32.209,62.279c-9.916,20.805-15.107,43.069-15.107,65.988
	c0,50.495,25.115,97.837,70.719,133.306c45.007,35.006,104.734,54.285,168.179,54.285s123.172-19.279,168.179-54.285
	c45.604-35.469,70.719-82.811,70.719-133.306c0-22.919-5.191-45.183-15.107-65.988C499.831,184.313,512,161.095,512,136.284z
	 M435.574,75.891c33.3,0,60.392,27.092,60.392,60.392c0,18.923-8.967,36.675-23.842,48.017
	c-11.743-19.492-27.852-37.427-47.945-53.056c-12.516-9.734-26.174-18.249-40.73-25.475C394.203,87.426,414,75.891,435.574,75.891z
	 M16.033,136.284c0-33.3,27.092-60.392,60.392-60.392c21.575,0,41.372,11.534,52.126,29.879
	c-14.556,7.226-28.215,15.741-40.73,25.475c-20.093,15.628-36.203,33.563-47.945,53.056C25,172.959,16.033,155.207,16.033,136.284z
	 M256,436.109c-122.887,0-222.864-76.96-222.864-171.557S133.113,92.994,256,92.994s222.864,76.96,222.864,171.557
	S378.888,436.109,256,436.109z"/>
<path d="M327.292,344.394l-8.033,8.033c-3.905,3.905-9.493,5.77-14.966,4.989l-40.277-5.755v-14.698
	c2.418-0.588,4.783-1.439,7.041-2.568l13.988-6.993l0,0c8.128-4.065,13.176-12.235,13.176-21.378
	c0-13.143-10.692-23.836-23.836-23.836h-36.77c-13.143,0-23.836,10.692-23.836,23.893c0,9.086,5.048,17.256,13.176,21.32
	l13.986,6.993c2.259,1.13,4.623,1.981,7.041,2.569v14.698l-40.277,5.754c-5.468,0.782-11.061-1.084-14.966-4.989l-8.033-8.033
	c-3.131-3.131-8.207-3.131-11.337,0c-3.131,3.131-3.131,8.207,0,11.337l8.033,8.033c6.334,6.335,15,9.857,23.864,9.857
	c1.566,0,3.139-0.11,4.706-0.334L256,366.712l46.027,6.575c10.433,1.493,21.116-2.069,28.57-9.524l8.033-8.033
	c3.131-3.131,3.131-8.207,0-11.337C335.499,341.264,330.422,341.264,327.292,344.394z M234.126,313.061
	c-2.66-1.331-4.314-4.005-4.314-7.037c0-4.302,3.501-7.803,7.803-7.803h36.77c4.302,0,7.803,3.501,7.803,7.86
	c0,2.975-1.652,5.649-4.314,6.98l-13.988,6.993c-4.938,2.47-10.835,2.469-15.774,0L234.126,313.061z"/>
<path d="M153.386,230.881c-4.427,0-8.017,3.589-8.017,8.017v8.551c0,4.427,3.589,8.017,8.017,8.017c4.427,0,8.017-3.589,8.017-8.017
	v-8.551C161.403,234.47,157.814,230.881,153.386,230.881z"/>
<path d="M153.386,196.676c-14.338,0-31.208,8.647-46.286,23.726c-14.584,14.584-25.481,33.083-29.9,50.755
	c-4.497,17.984-1.064,35.457,9.666,49.199c10.082,12.912,25.358,20.62,40.867,20.62c48.344,0,67.875-72.039,67.875-102.079
	C195.608,215.617,176.667,196.676,153.386,196.676z M127.733,324.944c-10.61,0-21.163-5.403-28.228-14.453
	c-7.625-9.766-10.022-22.354-6.75-35.444c7.573-30.295,38.74-62.337,60.632-62.337c14.44,0,26.188,11.748,26.188,26.188
	C179.574,262.595,163.634,324.944,127.733,324.944z"/>
<path d="M358.614,230.881c-4.427,0-8.017,3.589-8.017,8.017v8.551c0,4.427,3.589,8.017,8.017,8.017c4.427,0,8.017-3.589,8.017-8.017
	v-8.551C366.63,234.47,363.041,230.881,358.614,230.881z"/>
<path d="M358.614,196.676c-23.281,0-42.221,18.941-42.221,42.221c0,30.04,19.531,102.079,67.875,102.079
	c15.509,0,30.785-7.708,40.866-20.62c10.73-13.742,14.163-31.215,9.666-49.199c-4.418-17.672-15.316-36.172-29.9-50.755
	C389.822,205.324,372.952,196.676,358.614,196.676z M412.496,310.491c-7.065,9.049-17.619,14.453-28.228,14.453
	c-35.901,0-51.841-62.349-51.841-86.046c0-14.44,11.748-26.188,26.188-26.188c21.892,0,53.059,32.042,60.632,62.337
	C422.519,288.136,420.121,300.725,412.496,310.491z"/>
<g>
</g>
<g>
</g>
<g>
</g>
<g>
</g>
<g>
</g>
<g>
</g>
<g>
</g>
<g>
</g>
<g>
</g>
<g>
</g>
<g>
</g>
<g>
</g>
<g>
</g>
<g>
</g>
<g>
</g>
</svg>
