<?xml version="1.0" standalone="no"?><!DOCTYPE svg PUBLIC "-//W3C//DTD SVG 1.1//EN" "http://www.w3.org/Graphics/SVG/1.1/DTD/svg11.dtd"><svg t="1630830809709" class="icon" viewBox="0 0 1024 1024" version="1.1" xmlns="http://www.w3.org/2000/svg" p-id="5522" xmlns:xlink="http://www.w3.org/1999/xlink" width="200" height="200"><defs><style type="text/css"></style></defs><path d="M733.297778 710.352593c69.973333 0 126.672593 57.457778 126.672592 128.379259 0 70.921481-56.699259 128.379259-126.672592 128.379259-69.973333 0-126.672593-57.457778-126.672593-128.379259 0-70.921481 56.699259-128.379259 126.672593-128.379259zM733.297778 56.888889c69.973333 0 126.672593 57.457778 126.672592 128.379259s-56.699259 128.379259-126.672592 128.379259c-69.973333 0-126.672593-57.457778-126.672593-128.379259S663.324444 56.888889 733.297778 56.888889zM290.702222 326.352593c69.973333 0 126.672593 57.268148 126.672593 128s-56.699259 128-126.672593 128c-69.973333 0-126.672593-57.268148-126.672592-128s56.699259-128 126.672592-128z" p-id="5523" fill="#83cb16"></path><path d="M693.665185 867.176296L227.745185 448.853333l471.04-295.822222 40.391111 64.284445-385.896296 242.346666 391.016296 351.004445z" p-id="5524" fill="#83cb16"></path></svg>