<?xml version="1.0" standalone="no"?><!DOCTYPE svg PUBLIC "-//W3C//DTD SVG 1.1//EN" "http://www.w3.org/Graphics/SVG/1.1/DTD/svg11.dtd"><svg t="1630820483427" class="icon" viewBox="0 0 1024 1024" version="1.1" xmlns="http://www.w3.org/2000/svg" p-id="2127" xmlns:xlink="http://www.w3.org/1999/xlink" width="200" height="200"><defs><style type="text/css"></style></defs><path d="M34.133333 204.8a136.533333 136.533333 0 0 1 136.533334-136.533333h269.038933c23.381333 0 44.782933 13.2096 55.227733 34.133333 10.4448 20.923733 31.8464 34.133333 55.227734 34.133333H853.333333a136.533333 136.533333 0 0 1 136.533334 136.533334v546.133333a136.533333 136.533333 0 0 1-136.533334 136.533333H170.666667a136.533333 136.533333 0 0 1-136.533334-136.533333V204.8z" fill="#FFAA44" p-id="2128"></path><path d="M102.4 273.066667a68.266667 68.266667 0 0 1 68.266667-68.266667h682.666666a68.266667 68.266667 0 0 1 68.266667 68.266667v546.133333a68.266667 68.266667 0 0 1-68.266667 68.266667H170.666667a68.266667 68.266667 0 0 1-68.266667-68.266667V273.066667z" fill="#FFFFFF" p-id="2129"></path><path d="M34.133333 409.6a136.533333 136.533333 0 0 1 136.533334-136.533333h682.666666a136.533333 136.533333 0 0 1 136.533334 136.533333v409.6a136.533333 136.533333 0 0 1-136.533334 136.533333H170.666667a136.533333 136.533333 0 0 1-136.533334-136.533333V409.6z" fill="#FF7744" p-id="2130"></path><path d="M496.605867 407.7568a17.066667 17.066667 0 0 1 30.788266 0L576.853333 511.317333a17.066667 17.066667 0 0 0 13.175467 9.557334l113.800533 15.018666a17.066667 17.066667 0 0 1 9.489067 29.2864l-83.217067 79.018667a17.066667 17.066667 0 0 0-5.051733 15.496533l20.923733 112.8448a17.066667 17.066667 0 0 1-24.917333 18.090667l-100.864-54.749867a17.066667 17.066667 0 0 0-16.315733 0l-100.864 54.749867a17.066667 17.066667 0 0 1-24.917334-18.090667l20.8896-112.8448a17.066667 17.066667 0 0 0-5.0176-15.496533l-83.217066-79.018667a17.066667 17.066667 0 0 1 9.489066-29.2864l113.800534-15.018666a17.066667 17.066667 0 0 0 13.175466-9.557334l49.425067-103.560533z" fill="#FFFFFF" p-id="2131"></path></svg>